<?xml version="1.0" encoding="UTF-8"?>
<svg width="680px" height="551px" viewBox="0 0 680 551" version="1.1" xmlns="http://www.w3.org/2000/svg" xmlns:xlink="http://www.w3.org/1999/xlink">
    <!-- Generator: sketchtool 52.6 (67491) - http://www.bohemiancoding.com/sketch -->
    <title>3110B9EF-70DF-4ED0-988D-F86FF8DFAEF5</title>
    <desc>Created with sketchtool.</desc>
    <g id="Finals" stroke="none" stroke-width="1" fill="none" fill-rule="evenodd" opacity="0.15">
        <g id="login-draft---Promotion---Avatars" transform="translate(-600.000000, -17.000000)">
            <g id="Group-7" transform="translate(600.000000, 0.000000)">
                <g id="Speckles-mono" transform="translate(-600.000000, 0.000000)">
                    <circle id="Oval" stroke="#FFFFFF" stroke-width="1.7145" cx="926" cy="429" r="7"></circle>
                    <circle id="Oval" stroke="#FFFFFF" stroke-width="3.4291" cx="868" cy="241" r="13"></circle>
                    <circle id="Oval" stroke="#FFFFFF" stroke-width="2.5" cx="615" cy="448" r="7"></circle>
                    <circle id="Oval-Copy" stroke="#FFFFFF" stroke-width="3.4291" cx="1102" cy="235" r="7"></circle>
                    <circle id="Oval" stroke="#FFFFFF" stroke-width="2" cx="1091" cy="405" r="7"></circle>
                    <circle id="Oval-Copy-13" stroke="#FFFFFF" stroke-width="2" cx="1189" cy="223" r="4"></circle>
                    <circle id="Oval-Copy-26" stroke="#FFFFFF" stroke-width="2" cx="1084.5" cy="155.5" r="3.5"></circle>
                    <circle id="Oval" stroke="#FFFFFF" stroke-width="3.4291" cx="818" cy="488" r="7"></circle>
                    <circle id="Oval" stroke="#FFFFFF" stroke-width="1.7145" cx="601.5" cy="486.5" r="4.5"></circle>
                    <circle id="Oval-Copy-15" stroke="#FFFFFF" stroke-width="1.7145" cx="1282" cy="391" r="6"></circle>
                    <circle id="Oval" stroke="#FFFFFF" stroke-width="1.7145" cx="1021.5" cy="287.5" r="4.5"></circle>
                    <circle id="Oval-Copy-33" stroke="#FFFFFF" stroke-width="1.7145" cx="657.5" cy="95.5" r="4.5"></circle>
                    <circle id="Oval-Copy-4" stroke="#FFFFFF" stroke-width="1.7145" cx="1158.5" cy="445.5" r="4.5"></circle>
                    <path d="M861.5,566 C863.985281,566 866,563.985281 866,561.5 C866,559.014719 863.985281,557 861.5,557 C859.014719,557 857,559.014719 857,561.5 C857,563.985281 859.014719,566 861.5,566 Z" id="Oval-Copy-2" stroke="#FFFFFF" stroke-width="1.7145"></path>
                    <path d="M874.5,179 C877.537566,179 880,176.537566 880,173.5 C880,170.462434 877.537566,168 874.5,168 C871.462434,168 869,170.462434 869,173.5 C869,176.537566 871.462434,179 874.5,179 Z" id="Oval-Copy-2" stroke="#FFFFFF" stroke-width="1.7145"></path>
                    <circle id="Oval" stroke="#FFFFFF" stroke-width="3.4291" cx="748" cy="298" r="10"></circle>
                    <circle id="Oval-Copy-34" stroke="#FFFFFF" stroke-width="3.4291" cx="704" cy="54" r="10"></circle>
                    <circle id="Oval" stroke="#FFFFFF" stroke-width="2.2778" cx="1004.5" cy="559.5" r="6.5"></circle>
                    <circle id="Oval" stroke="#FFFFFF" stroke-width="1.7143" cx="1043" cy="539" r="5"></circle>
                    <circle id="Oval" stroke="#FFFFFF" stroke-width="1.7143" cx="740" cy="204" r="5"></circle>
                    <path d="M810,264 C812.761424,264 815,261.761424 815,259 C815,256.238576 812.761424,254 810,254 C807.238576,254 805,256.238576 805,259 C805,261.761424 807.238576,264 810,264 Z" id="Oval" stroke="#FFFFFF" stroke-width="2.8135"></path>
                    <path d="M1185,145 C1187.76142,145 1190,142.761424 1190,140 C1190,137.238576 1187.76142,135 1185,135 C1182.23858,135 1180,137.238576 1180,140 C1180,142.761424 1182.23858,145 1185,145 Z" id="Oval-Copy-16" stroke="#FFFFFF" stroke-width="1.5"></path>
                    <circle id="Oval" stroke="#FFFFFF" stroke-width="3" cx="1241.5" cy="516.5" r="6.5"></circle>
                    <circle id="Oval" stroke="#FFFFFF" stroke-width="1.7145" cx="953" cy="355" r="7"></circle>
                    <path d="M1186.91184,307.5 L1187.41945,311.75 L1187.92705,316 L1183.86622,314.375 L1179.8054,312.75 L1183.23172,310.125 L1186.91184,307.5 L1186.91184,307.5 Z M1188.43465,302 C1188.05395,302 1187.67325,302.125 1187.41945,302.375 L1181.07441,307.125 L1174.72936,311.875 C1173.58726,312.625 1173.84106,314.375 1175.11007,314.875 L1182.34341,317.875 L1189.57676,320.875 C1189.83056,321 1190.08436,321 1190.21127,321 C1191.22647,321 1192.11478,320.125 1191.98788,319 L1190.97267,311.25 L1189.95746,303.5 C1190.08436,302.625 1189.32296,302 1188.43465,302 L1188.43465,302 L1188.43465,302 Z" id="Shape" fill="#FFFFFF"></path>
                    <path d="M770.274643,553.553131 C769.024839,554.542781 767.025152,553.800543 766.775192,552.192362 L765.400407,542.790688 L764.025623,533.389014 C763.775662,531.780833 765.400407,530.54377 766.900172,531.162302 L775.773781,534.749782 L784.64739,538.337263 C786.147155,538.955795 786.522096,540.935094 785.147311,541.924744 L777.648487,547.862644 L770.274643,553.553131 L770.274643,553.553131 Z" id="Shape" stroke="#FFFFFF" stroke-width="1.7145"></path>
                    <path d="M1223.27464,221.553131 C1222.02484,222.542781 1220.02515,221.800543 1219.77519,220.192362 L1218.40041,210.790688 L1217.02562,201.389014 C1216.77566,199.780833 1218.40041,198.54377 1219.90017,199.162302 L1228.77378,202.749782 L1237.64739,206.337263 C1239.14715,206.955795 1239.5221,208.935094 1238.14731,209.924744 L1230.64849,215.862644 L1223.27464,221.553131 L1223.27464,221.553131 Z" id="Shape-Copy-23" stroke="#FFFFFF" stroke-width="1.7145"></path>
                    <polygon id="Shape" stroke="#FFFFFF" stroke-width="2" stroke-linejoin="round" points="1029.8777 169 1038.43885 184.123967 1047 199 1029.8777 199 1013 199 1021.56115 184.123967"></polygon>
                    <polygon id="Shape" stroke="#FFFFFF" stroke-width="3" points="605 363 613.5 365.266667 622 367.533333 615.75 373.703704 609.625 380 607.25 371.437037"></polygon>
                    <polygon id="Shape" stroke="#FFFFFF" stroke-width="3" points="856 88 864.5 90.2666667 873 92.5333333 866.75 98.7037037 860.625 105 858.25 96.437037"></polygon>
                    <polygon id="Shape" fill="#FFFFFF" points="690.393782 346.475138 688.404145 348 682.062176 339.359116 676.093264 348 673.979275 346.475138 679.823834 337.961326 670 334.276243 670.870466 331.861878 680.569948 335.801105 680.569948 325 683.305699 325 683.181347 335.801105 693.129534 331.861878 694 334.276243 683.927461 337.961326"></polygon>
                    <polygon id="Shape" fill="#FFFFFF" points="840.393782 420.475138 838.404145 422 832.062176 413.359116 826.093264 422 823.979275 420.475138 829.823834 411.961326 820 408.276243 820.870466 405.861878 830.569948 409.801105 830.569948 399 833.305699 399 833.181347 409.801105 843.129534 405.861878 844 408.276243 833.927461 411.961326"></polygon>
                    <polygon id="Shape-Copy-28" fill="#FFFFFF" points="1063.39378 81.4751381 1061.40415 83 1055.06218 74.359116 1049.09326 83 1046.97927 81.4751381 1052.82383 72.961326 1043 69.2762431 1043.87047 66.8618785 1053.56995 70.801105 1053.56995 60 1056.3057 60 1056.18135 70.801105 1066.12953 66.8618785 1067 69.2762431 1056.92746 72.961326"></polygon>
                    <polygon id="Shape-Copy-17" fill="#FFFFFF" points="714.445596 143.939227 713.036269 145 708.544041 138.98895 704.316062 145 702.818653 143.939227 706.958549 138.016575 700 135.453039 700.61658 133.773481 707.487047 136.513812 707.487047 129 709.42487 129 709.336788 136.513812 716.38342 133.773481 717 135.453039 709.865285 138.016575"></polygon>
                    <polygon id="Shape" fill="#FFFFFF" points="1106.39378 350.475138 1104.40415 352 1098.06218 343.359116 1092.09326 352 1089.97927 350.475138 1095.82383 341.961326 1086 338.276243 1086.87047 335.861878 1096.56995 339.801105 1096.56995 329 1099.3057 329 1099.18135 339.801105 1109.12953 335.861878 1110 338.276243 1099.92746 341.961326"></polygon>
                    <path d="M985,405.990335 C989.897674,402.492751 994.92093,409.487918 999.818605,405.990335 C1004.71628,402.492751 999.693023,395.497584 1004.5907,392 C1009.48837,388.502416 1014.51163,395.497584 1019.4093,392 C1024.30698,388.502416 1019.28372,381.507249 1024.1814,378.009665 C1029.07907,374.512082 1034.10233,381.507249 1039,378.009665" id="Shape" stroke="#FFFFFF" stroke-width="1.7145"></path>
                    <path d="M913,200.990335 C917.897674,197.492751 922.92093,204.487918 927.818605,200.990335 C932.716279,197.492751 927.693023,190.497584 932.590698,187 C937.488372,183.502416 942.511628,190.497584 947.409302,187 C952.306977,183.502416 947.283721,176.507249 952.181395,173.009665 C957.07907,169.512082 962.102326,176.507249 967,173.009665" id="Shape-Copy-2" stroke="#FFFFFF" stroke-width="1.7145" transform="translate(940.000000, 187.000000) rotate(-80.000000) translate(-940.000000, -187.000000) "></path>
                    <path d="M1247,454.505017 C1252.68421,452.482274 1255.58947,460.699666 1261.27368,458.676923 C1266.95789,456.654181 1264.05263,448.436789 1269.86316,446.414047 C1275.54737,444.391304 1278.45263,452.608696 1284.13684,450.585953 C1289.82105,448.563211 1286.91579,440.345819 1292.72632,438.323077 C1298.53684,436.300334 1301.31579,444.517726 1307,442.494983" id="Shape" stroke="#FFFFFF" stroke-width="1.7145"></path>
                    <path d="M720.427553,482 C718.055529,476.441113 725.92066,473.029979 723.548637,467.471092 C721.176613,461.912206 713.311482,465.32334 710.939458,459.764454 C708.567434,454.205567 716.432566,450.794433 714.060542,445.235546 C711.688518,439.67666 703.823387,443.087794 701.451363,437.528908 C699.07934,431.970021 706.944471,428.558887 704.572447,423" id="Shape" stroke="#FFFFFF" stroke-width="1.7145"></path>
                    <path d="M805.427553,168 C803.055529,162.441113 810.92066,159.029979 808.548637,153.471092 C806.176613,147.912206 798.311482,151.32334 795.939458,145.764454 C793.567434,140.205567 801.432566,136.794433 799.060542,131.235546 C796.688518,125.67666 788.823387,129.087794 786.451363,123.528908 C784.07934,117.970021 791.944471,114.558887 789.572447,109" id="Shape-Copy-16" stroke="#FFFFFF" stroke-width="1.7145" transform="translate(797.500000, 138.500000) rotate(19.000000) translate(-797.500000, -138.500000) "></path>
                    <path d="M586.427553,293 C584.055529,287.441113 591.92066,284.029979 589.548637,278.471092 C587.176613,272.912206 579.311482,276.32334 576.939458,270.764454 C574.567434,265.205567 582.432566,261.794433 580.060542,256.235546 C577.688518,250.67666 569.823387,254.087794 567.451363,248.528908 C565.07934,242.970021 572.944471,239.558887 570.572447,234" id="Shape-Copy" stroke="#FFFFFF" stroke-width="1.7145" transform="translate(578.500000, 263.500000) rotate(49.000000) translate(-578.500000, -263.500000) "></path>
                    <g id="cross" transform="translate(663.000000, 529.000000)" stroke="#FFFFFF" stroke-width="3.4291">
                        <path d="M14.4481541,0.380979657 L14.4481541,27.9385082" id="Shape"></path>
                        <path d="M28.2626173,14.0962473 L0.633690971,14.0962473" id="Shape"></path>
                    </g>
                    <g id="cross" transform="translate(857.000000, 334.000000)" stroke="#FFFFFF" stroke-width="3.4291">
                        <path d="M19.8667903,0.123644513 L0.863773493,19.1648996" id="Shape"></path>
                        <path d="M19.8667903,19.1648996 L0.863773493,0.123644513" id="Shape"></path>
                    </g>
                    <g id="cross" transform="translate(1289.500000, 289.500000) rotate(-315.000000) translate(-1289.500000, -289.500000) translate(1275.000000, 275.000000)" stroke="#FFFFFF" stroke-width="4">
                        <path d="M28.3239227,0.48107082 L0.0601749472,28.8016914" id="Shape"></path>
                        <path d="M28.3239227,28.8016914 L0.0601749472,0.48107082" id="Shape"></path>
                    </g>
                    <g id="cross" transform="translate(1152.000000, 543.000000)" stroke="#FFFFFF" stroke-width="2.4817">
                        <path d="M10.7683762,0.156076201 L10.7683762,20.3231833" id="Shape"></path>
                        <path d="M20.8957777,10.3038562 L0.640974775,10.3038562" id="Shape"></path>
                    </g>
                    <g id="cross-copy" transform="translate(963.000000, 93.000000)" stroke="#FFFFFF" stroke-width="4">
                        <path d="M11.1475444,0.156076201 L11.1475444,20.3231833" id="Shape"></path>
                        <path d="M20.8957777,10.1658291 L0.640974775,10.1658291" id="Shape"></path>
                    </g>
                    <g id="cross" transform="translate(998.000000, 460.000000)" stroke="#FFFFFF" stroke-width="2.3201">
                        <path d="M24.1596125,0.363513709 L0.894800464,23.8616327" id="Shape"></path>
                        <path d="M24.1596125,23.8616327 L0.894800464,0.363513709" id="Shape"></path>
                    </g>
                    <g id="cross-copy-3" transform="translate(1139.000000, 64.000000)" stroke="#FFFFFF" stroke-width="2.3201">
                        <path d="M24.1596125,0.363513709 L0.894800464,23.8616327" id="Shape"></path>
                        <path d="M24.1596125,23.8616327 L0.894800464,0.363513709" id="Shape"></path>
                    </g>
                    <g id="cross" transform="translate(639.000000, 273.000000)" stroke="#FFFFFF" stroke-width="2.3201">
                        <path d="M13.2157344,2.84217094e-14 L0.489471646,12.9174795" id="Shape"></path>
                        <path d="M13.2157344,12.9174795 L0.489471646,2.84217094e-14" id="Shape"></path>
                    </g>
                    <g id="pop" transform="translate(883.000000, 492.000000)" fill="#FFFFFF">
                        <path d="M12.5864138,14.550965 C12.9640062,13.9237682 13.4674627,13.4220108 14.0967834,13.0456927 L6.92252757,5.8956496 C6.54493516,5.51933154 5.78975033,5.51933154 5.41215792,5.8956496 C5.0345655,6.27196766 5.0345655,7.02460378 5.41215792,7.40092184 L12.5864138,14.550965 L12.5864138,14.550965 Z" id="Shape"></path>
                        <path d="M23.2848655,14.550965 L30.4591213,7.40092184 C30.8367137,7.02460378 30.8367137,6.27196766 30.4591213,5.8956496 C30.0815289,5.51933154 29.3263441,5.51933154 28.9487516,5.8956496 L21.7744958,13.0456927 C22.2779524,13.5474501 22.7814089,14.0492076 23.2848655,14.550965 L23.2848655,14.550965 Z" id="Shape"></path>
                        <path d="M11.3277724,18.4395849 C11.3277724,18.0632669 11.3277724,17.6869488 11.4536365,17.3106307 L1.38450551,17.3106307 C0.755184826,17.3106307 0.251728275,17.8123882 0.251728275,18.4395849 C0.251728275,19.0667817 0.755184826,19.5685391 1.38450551,19.5685391 L11.4536365,19.5685391 C11.3277724,19.192221 11.3277724,18.815903 11.3277724,18.4395849 L11.3277724,18.4395849 Z" id="Shape"></path>
                        <path d="M17.8727075,11.7912992 C18.2503,11.7912992 18.6278924,11.7912992 19.0054848,11.9167386 L19.0054848,1.8815903 C19.0054848,1.25439353 18.5020282,0.752636119 17.8727075,0.752636119 C17.2433869,0.752636119 16.7399303,1.25439353 16.7399303,1.8815903 L16.7399303,11.9167386 C17.1175227,11.9167386 17.4951151,11.7912992 17.8727075,11.7912992 L17.8727075,11.7912992 Z" id="Shape"></path>
                        <path d="M34.4867737,17.3106307 L24.4176427,17.3106307 C24.4176427,17.6869488 24.5435068,18.0632669 24.5435068,18.4395849 C24.5435068,18.815903 24.5435068,19.192221 24.4176427,19.5685391 L34.4867737,19.5685391 C35.1160944,19.5685391 35.6195509,19.0667817 35.6195509,18.4395849 C35.4936868,17.8123882 34.9902303,17.3106307 34.4867737,17.3106307 L34.4867737,17.3106307 Z" id="Shape"></path>
                        <path d="M23.2848655,22.2027655 C22.907273,22.8299623 22.4038165,23.3317197 21.7744958,23.7080378 L28.9487516,30.8580809 C29.2004799,31.1089596 29.4522082,31.2343989 29.7039365,31.2343989 C29.9556647,31.2343989 30.207393,31.1089596 30.4591213,30.8580809 C30.8367137,30.4817628 30.8367137,29.7291267 30.4591213,29.3528086 L23.2848655,22.2027655 L23.2848655,22.2027655 Z" id="Shape"></path>
                        <path d="M12.5864138,22.2027655 L5.41215792,29.3528086 C5.0345655,29.7291267 5.0345655,30.4817628 5.41215792,30.8580809 C5.66388619,31.1089596 5.91561447,31.2343989 6.16734274,31.2343989 C6.41907102,31.2343989 6.67079929,31.1089596 6.92252757,30.8580809 L14.0967834,23.7080378 C13.4674627,23.3317197 12.9640062,22.8299623 12.5864138,22.2027655 L12.5864138,22.2027655 Z" id="Shape"></path>
                        <path d="M17.8727075,24.9624313 C17.4951151,24.9624313 17.1175227,24.9624313 16.7399303,24.8369919 L16.7399303,34.8721402 C16.7399303,35.499337 17.2433869,36.0010944 17.8727075,36.0010944 C18.5020282,36.0010944 19.0054848,35.499337 19.0054848,34.8721402 L19.0054848,24.8369919 C18.6278924,24.9624313 18.2503,24.9624313 17.8727075,24.9624313 L17.8727075,24.9624313 Z" id="Shape"></path>
                    </g>
                    <g id="pop-copy-2" transform="translate(905.000000, 17.000000)" fill="#FFFFFF">
                        <path d="M12.5864138,14.550965 C12.9640062,13.9237682 13.4674627,13.4220108 14.0967834,13.0456927 L6.92252757,5.8956496 C6.54493516,5.51933154 5.78975033,5.51933154 5.41215792,5.8956496 C5.0345655,6.27196766 5.0345655,7.02460378 5.41215792,7.40092184 L12.5864138,14.550965 L12.5864138,14.550965 Z" id="Shape"></path>
                        <path d="M23.2848655,14.550965 L30.4591213,7.40092184 C30.8367137,7.02460378 30.8367137,6.27196766 30.4591213,5.8956496 C30.0815289,5.51933154 29.3263441,5.51933154 28.9487516,5.8956496 L21.7744958,13.0456927 C22.2779524,13.5474501 22.7814089,14.0492076 23.2848655,14.550965 L23.2848655,14.550965 Z" id="Shape"></path>
                        <path d="M11.3277724,18.4395849 C11.3277724,18.0632669 11.3277724,17.6869488 11.4536365,17.3106307 L1.38450551,17.3106307 C0.755184826,17.3106307 0.251728275,17.8123882 0.251728275,18.4395849 C0.251728275,19.0667817 0.755184826,19.5685391 1.38450551,19.5685391 L11.4536365,19.5685391 C11.3277724,19.192221 11.3277724,18.815903 11.3277724,18.4395849 L11.3277724,18.4395849 Z" id="Shape"></path>
                        <path d="M17.8727075,11.7912992 C18.2503,11.7912992 18.6278924,11.7912992 19.0054848,11.9167386 L19.0054848,1.8815903 C19.0054848,1.25439353 18.5020282,0.752636119 17.8727075,0.752636119 C17.2433869,0.752636119 16.7399303,1.25439353 16.7399303,1.8815903 L16.7399303,11.9167386 C17.1175227,11.9167386 17.4951151,11.7912992 17.8727075,11.7912992 L17.8727075,11.7912992 Z" id="Shape"></path>
                        <path d="M34.4867737,17.3106307 L24.4176427,17.3106307 C24.4176427,17.6869488 24.5435068,18.0632669 24.5435068,18.4395849 C24.5435068,18.815903 24.5435068,19.192221 24.4176427,19.5685391 L34.4867737,19.5685391 C35.1160944,19.5685391 35.6195509,19.0667817 35.6195509,18.4395849 C35.4936868,17.8123882 34.9902303,17.3106307 34.4867737,17.3106307 L34.4867737,17.3106307 Z" id="Shape"></path>
                        <path d="M23.2848655,22.2027655 C22.907273,22.8299623 22.4038165,23.3317197 21.7744958,23.7080378 L28.9487516,30.8580809 C29.2004799,31.1089596 29.4522082,31.2343989 29.7039365,31.2343989 C29.9556647,31.2343989 30.207393,31.1089596 30.4591213,30.8580809 C30.8367137,30.4817628 30.8367137,29.7291267 30.4591213,29.3528086 L23.2848655,22.2027655 L23.2848655,22.2027655 Z" id="Shape"></path>
                        <path d="M12.5864138,22.2027655 L5.41215792,29.3528086 C5.0345655,29.7291267 5.0345655,30.4817628 5.41215792,30.8580809 C5.66388619,31.1089596 5.91561447,31.2343989 6.16734274,31.2343989 C6.41907102,31.2343989 6.67079929,31.1089596 6.92252757,30.8580809 L14.0967834,23.7080378 C13.4674627,23.3317197 12.9640062,22.8299623 12.5864138,22.2027655 L12.5864138,22.2027655 Z" id="Shape"></path>
                        <path d="M17.8727075,24.9624313 C17.4951151,24.9624313 17.1175227,24.9624313 16.7399303,24.8369919 L16.7399303,34.8721402 C16.7399303,35.499337 17.2433869,36.0010944 17.8727075,36.0010944 C18.5020282,36.0010944 19.0054848,35.499337 19.0054848,34.8721402 L19.0054848,24.8369919 C18.6278924,24.9624313 18.2503,24.9624313 17.8727075,24.9624313 L17.8727075,24.9624313 Z" id="Shape"></path>
                    </g>
                    <g id="pop" transform="translate(746.000000, 376.000000)" fill="#FFFFFF">
                        <path d="M7.6916973,9.03288247 C7.94808721,8.65121138 8.20447712,8.39676399 8.58906198,8.14231659 L4.23043351,3.8167109 C3.9740436,3.56226351 3.58945874,3.56226351 3.33306883,3.8167109 C3.07667892,4.0711583 3.07667892,4.45282939 3.33306883,4.70727678 L7.6916973,9.03288247 L7.6916973,9.03288247 Z" id="Shape"></path>
                        <path d="M14.22964,9.03288247 L18.5882685,4.70727678 C18.8446584,4.45282939 18.8446584,4.0711583 18.5882685,3.8167109 C18.3318786,3.56226351 17.9472937,3.56226351 17.6909038,3.8167109 L13.3322753,8.14231659 C13.5886652,8.39676399 13.9732501,8.65121138 14.22964,9.03288247 L14.22964,9.03288247 Z" id="Shape"></path>
                        <path d="M6.92252757,11.322909 C6.92252757,11.0684616 6.92252757,10.9412379 7.05072252,10.6867905 L0.897364685,10.6867905 C0.51277982,10.6867905 0.25638991,10.9412379 0.25638991,11.322909 C0.25638991,11.7045801 0.51277982,11.9590275 0.897364685,11.9590275 L7.05072252,11.9590275 C6.92252757,11.8318038 6.92252757,11.5773564 6.92252757,11.322909 L6.92252757,11.322909 Z" id="Shape"></path>
                        <path d="M10.8965712,7.37897441 C11.1529611,7.37897441 11.281156,7.37897441 11.5375459,7.50619811 L11.5375459,1.39946066 C11.5375459,1.01778957 11.281156,0.763342181 10.8965712,0.763342181 C10.5119863,0.763342181 10.2555964,1.01778957 10.2555964,1.39946066 L10.2555964,7.50619811 C10.5119863,7.37897441 10.6401813,7.37897441 10.8965712,7.37897441 L10.8965712,7.37897441 Z" id="Shape"></path>
                        <path d="M21.0239726,10.6867905 L14.8706148,10.6867905 C14.8706148,10.9412379 14.9988097,11.0684616 14.9988097,11.322909 C14.9988097,11.5773564 14.9988097,11.7045801 14.8706148,11.9590275 L21.0239726,11.9590275 C21.4085575,11.9590275 21.6649474,11.7045801 21.6649474,11.322909 C21.6649474,11.0684616 21.4085575,10.6867905 21.0239726,10.6867905 L21.0239726,10.6867905 Z" id="Shape"></path>
                        <path d="M14.22964,13.7401592 C13.9732501,14.1218303 13.7168602,14.3762777 13.3322753,14.6307251 L17.6909038,18.9563308 C17.8190987,19.0835545 17.9472937,19.2107782 18.2036836,19.2107782 C18.4600735,19.2107782 18.5882685,19.0835545 18.7164634,18.9563308 C18.9728533,18.7018834 18.9728533,18.3202123 18.7164634,18.0657649 L14.22964,13.7401592 L14.22964,13.7401592 Z" id="Shape"></path>
                        <path d="M7.6916973,13.7401592 L3.33306883,18.0657649 C3.07667892,18.3202123 3.07667892,18.7018834 3.33306883,18.9563308 C3.46126378,19.0835545 3.58945874,19.2107782 3.84584865,19.2107782 C4.10223856,19.2107782 4.23043351,19.0835545 4.35862847,18.9563308 L8.71725694,14.6307251 C8.20447712,14.3762777 7.94808721,14.1218303 7.6916973,13.7401592 L7.6916973,13.7401592 Z" id="Shape"></path>
                        <path d="M10.8965712,15.3940673 C10.6401813,15.3940673 10.5119863,15.3940673 10.2555964,15.2668436 L10.2555964,21.3735811 C10.2555964,21.7552521 10.5119863,22.0096995 10.8965712,22.0096995 C11.281156,22.0096995 11.5375459,21.7552521 11.5375459,21.3735811 L11.5375459,15.2668436 C11.409351,15.3940673 11.1529611,15.3940673 10.8965712,15.3940673 L10.8965712,15.3940673 Z" id="Shape"></path>
                    </g>
                    <g id="pop" transform="translate(620.000000, 147.000000)" fill="#FFFFFF">
                        <path d="M9.78943292,11.521107 C10.1157474,11.0342997 10.4420618,10.7097615 10.9315334,10.3852232 L5.38418811,4.8680734 C5.05787368,4.54353517 4.56840203,4.54353517 4.2420876,4.8680734 C3.91577317,5.19261162 3.91577317,5.67941896 4.2420876,6.00395719 L9.78943292,11.521107 L9.78943292,11.521107 Z" id="Shape"></path>
                        <path d="M18.1104509,11.521107 L23.6577962,6.00395719 C23.9841107,5.67941896 23.9841107,5.19261162 23.6577962,4.8680734 C23.3314818,4.54353517 22.8420102,4.54353517 22.5156957,4.8680734 L16.9683504,10.3852232 C17.2946648,10.7097615 17.7841365,11.0342997 18.1104509,11.521107 L18.1104509,11.521107 Z" id="Shape"></path>
                        <path d="M8.81048963,14.4419511 C8.81048963,14.1174129 8.81048963,13.9551437 8.97364685,13.6306055 L1.14210051,13.6306055 C0.652628862,13.6306055 0.326314431,13.9551437 0.326314431,14.4419511 C0.326314431,14.9287584 0.652628862,15.2532966 1.14210051,15.2532966 L8.97364685,15.2532966 C8.81048963,15.0910275 8.81048963,14.7664893 8.81048963,14.4419511 L8.81048963,14.4419511 Z" id="cross"></path>
                        <path d="M13.8683633,9.41160857 C14.1946777,9.41160857 14.357835,9.41160857 14.6841494,9.57387768 L14.6841494,1.78496025 C14.6841494,1.29815291 14.357835,0.973614679 13.8683633,0.973614679 C13.3788917,0.973614679 13.0525772,1.29815291 13.0525772,1.78496025 L13.0525772,9.57387768 C13.3788917,9.41160857 13.5420489,9.41160857 13.8683633,9.41160857 L13.8683633,9.41160857 Z" id="Shape"></path>
                        <path d="M26.7577833,13.6306055 L18.926237,13.6306055 C18.926237,13.9551437 19.0893942,14.1174129 19.0893942,14.4419511 C19.0893942,14.7664893 19.0893942,14.9287584 18.926237,15.2532966 L26.7577833,15.2532966 C27.247255,15.2532966 27.5735694,14.9287584 27.5735694,14.4419511 C27.5735694,14.1174129 27.247255,13.6306055 26.7577833,13.6306055 L26.7577833,13.6306055 Z" id="Shape"></path>
                        <path d="M18.1104509,17.5250642 C17.7841365,18.0118716 17.457822,18.3364098 16.9683504,18.660948 L22.5156957,24.1780979 C22.6788529,24.340367 22.8420102,24.5026361 23.1683246,24.5026361 C23.494639,24.5026361 23.6577962,24.340367 23.8209534,24.1780979 C24.1472679,23.8535596 24.1472679,23.3667523 23.8209534,23.0422141 L18.1104509,17.5250642 L18.1104509,17.5250642 Z" id="Shape"></path>
                        <path d="M9.78943292,17.5250642 L4.2420876,23.0422141 C3.91577317,23.3667523 3.91577317,23.8535596 4.2420876,24.1780979 C4.40524482,24.340367 4.56840203,24.5026361 4.89471646,24.5026361 C5.22103089,24.5026361 5.38418811,24.340367 5.54734532,24.1780979 L11.0946906,18.660948 C10.4420618,18.3364098 10.1157474,18.0118716 9.78943292,17.5250642 L9.78943292,17.5250642 Z" id="Shape"></path>
                        <path d="M13.8683633,19.6345627 C13.5420489,19.6345627 13.3788917,19.6345627 13.0525772,19.4722936 L13.0525772,27.261211 C13.0525772,27.7480184 13.3788917,28.0725566 13.8683633,28.0725566 C14.357835,28.0725566 14.6841494,27.7480184 14.6841494,27.261211 L14.6841494,19.4722936 C14.5209922,19.6345627 14.1946777,19.6345627 13.8683633,19.6345627 L13.8683633,19.6345627 Z" id="Shape"></path>
                    </g>
                    <g id="pop" transform="translate(1178.000000, 376.000000)" fill="#FFFFFF">
                        <path d="M13.1446821,14.8018437 C13.5202445,14.1746469 14.1461817,13.6728895 14.6469315,13.2965714 L7.38605947,6.02108895 C7.01049713,5.64477089 6.25937243,5.64477089 5.88381009,6.02108895 C5.50824774,6.39740701 5.50824774,7.15004313 5.88381009,7.52636119 L13.1446821,14.8018437 L13.1446821,14.8018437 Z" id="Shape"></path>
                        <path d="M24.1611776,14.8018437 L31.4220496,7.52636119 C31.797612,7.15004313 31.797612,6.39740701 31.4220496,6.02108895 C31.0464873,5.64477089 30.2953626,5.64477089 29.9198002,6.02108895 L22.6589282,13.2965714 C23.159678,13.6728895 23.6604278,14.1746469 24.1611776,14.8018437 L24.1611776,14.8018437 Z" id="Shape"></path>
                        <path d="M11.8928076,18.6904636 C11.8928076,18.3141456 11.8928076,17.9378275 12.0179951,17.5615094 L1.75262428,17.5615094 C1.12668704,17.5615094 0.625937243,18.0632669 0.625937243,18.6904636 C0.625937243,19.3176604 1.12668704,19.8194178 1.75262428,19.8194178 L12.0179951,19.8194178 C11.8928076,19.4430997 11.8928076,19.0667817 11.8928076,18.6904636 L11.8928076,18.6904636 Z" id="Shape"></path>
                        <path d="M18.6529299,11.9167386 C19.0284922,11.9167386 19.4040545,11.9167386 19.7796169,12.0421779 L19.7796169,1.75615094 C19.7796169,1.12895418 19.2788671,0.627196766 18.6529299,0.627196766 C18.0269926,0.627196766 17.5262428,1.12895418 17.5262428,1.75615094 L17.5262428,12.0421779 C17.9018052,11.9167386 18.2773675,11.9167386 18.6529299,11.9167386 L18.6529299,11.9167386 Z" id="Shape"></path>
                        <path d="M35.5532354,17.5615094 L25.2878646,17.5615094 C25.2878646,17.9378275 25.4130521,18.3141456 25.4130521,18.6904636 C25.4130521,19.0667817 25.4130521,19.4430997 25.2878646,19.8194178 L35.5532354,19.8194178 C36.1791727,19.8194178 36.6799225,19.3176604 36.6799225,18.6904636 C36.6799225,18.0632669 36.1791727,17.5615094 35.5532354,17.5615094 L35.5532354,17.5615094 Z" id="Shape"></path>
                        <path d="M24.1611776,22.5790836 C23.7856153,23.2062803 23.159678,23.7080378 22.6589282,24.0843558 L29.9198002,31.3598383 C30.1701751,31.610717 30.42055,31.7361564 30.6709249,31.7361564 C30.9212998,31.7361564 31.2968622,31.610717 31.4220496,31.3598383 C31.797612,30.9835202 31.797612,30.2308841 31.4220496,29.8545661 L24.1611776,22.5790836 L24.1611776,22.5790836 Z" id="Shape"></path>
                        <path d="M13.1446821,22.5790836 L5.88381009,29.8545661 C5.50824774,30.2308841 5.50824774,30.9835202 5.88381009,31.3598383 C6.13418499,31.610717 6.38455988,31.7361564 6.63493478,31.7361564 C6.88530968,31.7361564 7.26087202,31.610717 7.38605947,31.3598383 L14.6469315,24.0843558 C14.1461817,23.7080378 13.6454319,23.2062803 13.1446821,22.5790836 L13.1446821,22.5790836 Z" id="Shape"></path>
                        <path d="M18.6529299,25.4641887 C18.2773675,25.4641887 17.9018052,25.4641887 17.5262428,25.3387493 L17.5262428,35.6247763 C17.5262428,36.2519731 18.0269926,36.7537305 18.6529299,36.7537305 C19.2788671,36.7537305 19.7796169,36.2519731 19.7796169,35.6247763 L19.7796169,25.3387493 C19.4040545,25.3387493 19.0284922,25.4641887 18.6529299,25.4641887 L18.6529299,25.4641887 Z" id="Shape"></path>
                    </g>
                    <g id="pop" transform="translate(1229.000000, 114.000000)" fill="#FFFFFF">
                        <path d="M13.1446821,14.8018437 C13.5202445,14.1746469 14.1461817,13.6728895 14.6469315,13.2965714 L7.38605947,6.02108895 C7.01049713,5.64477089 6.25937243,5.64477089 5.88381009,6.02108895 C5.50824774,6.39740701 5.50824774,7.15004313 5.88381009,7.52636119 L13.1446821,14.8018437 L13.1446821,14.8018437 Z" id="Shape"></path>
                        <path d="M24.1611776,14.8018437 L31.4220496,7.52636119 C31.797612,7.15004313 31.797612,6.39740701 31.4220496,6.02108895 C31.0464873,5.64477089 30.2953626,5.64477089 29.9198002,6.02108895 L22.6589282,13.2965714 C23.159678,13.6728895 23.6604278,14.1746469 24.1611776,14.8018437 L24.1611776,14.8018437 Z" id="Shape"></path>
                        <path d="M11.8928076,18.6904636 C11.8928076,18.3141456 11.8928076,17.9378275 12.0179951,17.5615094 L1.75262428,17.5615094 C1.12668704,17.5615094 0.625937243,18.0632669 0.625937243,18.6904636 C0.625937243,19.3176604 1.12668704,19.8194178 1.75262428,19.8194178 L12.0179951,19.8194178 C11.8928076,19.4430997 11.8928076,19.0667817 11.8928076,18.6904636 L11.8928076,18.6904636 Z" id="Shape"></path>
                        <path d="M18.6529299,11.9167386 C19.0284922,11.9167386 19.4040545,11.9167386 19.7796169,12.0421779 L19.7796169,1.75615094 C19.7796169,1.12895418 19.2788671,0.627196766 18.6529299,0.627196766 C18.0269926,0.627196766 17.5262428,1.12895418 17.5262428,1.75615094 L17.5262428,12.0421779 C17.9018052,11.9167386 18.2773675,11.9167386 18.6529299,11.9167386 L18.6529299,11.9167386 Z" id="Shape"></path>
                        <path d="M35.5532354,17.5615094 L25.2878646,17.5615094 C25.2878646,17.9378275 25.4130521,18.3141456 25.4130521,18.6904636 C25.4130521,19.0667817 25.4130521,19.4430997 25.2878646,19.8194178 L35.5532354,19.8194178 C36.1791727,19.8194178 36.6799225,19.3176604 36.6799225,18.6904636 C36.6799225,18.0632669 36.1791727,17.5615094 35.5532354,17.5615094 L35.5532354,17.5615094 Z" id="Shape"></path>
                        <path d="M24.1611776,22.5790836 C23.7856153,23.2062803 23.159678,23.7080378 22.6589282,24.0843558 L29.9198002,31.3598383 C30.1701751,31.610717 30.42055,31.7361564 30.6709249,31.7361564 C30.9212998,31.7361564 31.2968622,31.610717 31.4220496,31.3598383 C31.797612,30.9835202 31.797612,30.2308841 31.4220496,29.8545661 L24.1611776,22.5790836 L24.1611776,22.5790836 Z" id="Shape"></path>
                        <path d="M13.1446821,22.5790836 L5.88381009,29.8545661 C5.50824774,30.2308841 5.50824774,30.9835202 5.88381009,31.3598383 C6.13418499,31.610717 6.38455988,31.7361564 6.63493478,31.7361564 C6.88530968,31.7361564 7.26087202,31.610717 7.38605947,31.3598383 L14.6469315,24.0843558 C14.1461817,23.7080378 13.6454319,23.2062803 13.1446821,22.5790836 L13.1446821,22.5790836 Z" id="Shape"></path>
                        <path d="M18.6529299,25.4641887 C18.2773675,25.4641887 17.9018052,25.4641887 17.5262428,25.3387493 L17.5262428,35.6247763 C17.5262428,36.2519731 18.0269926,36.7537305 18.6529299,36.7537305 C19.2788671,36.7537305 19.7796169,36.2519731 19.7796169,35.6247763 L19.7796169,25.3387493 C19.4040545,25.3387493 19.0284922,25.4641887 18.6529299,25.4641887 L18.6529299,25.4641887 Z" id="Shape"></path>
                    </g>
                    <g id="pop" transform="translate(1115.000000, 504.000000)" fill="#FFFFFF">
                        <path d="M7.81989225,8.41455356 C8.07628216,8.03288247 8.33267207,7.77843508 8.71725694,7.52398768 L4.35862847,3.19838199 C4.10223856,2.9439346 3.71765369,2.9439346 3.46126378,3.19838199 C3.20487387,3.45282939 3.20487387,3.83450048 3.46126378,4.08894787 L7.81989225,8.41455356 L7.81989225,8.41455356 Z" id="Shape"></path>
                        <path d="M14.357835,8.41455356 L18.7164634,4.08894787 C18.9728533,3.83450048 18.9728533,3.45282939 18.7164634,3.19838199 C18.4600735,2.9439346 18.0754886,2.9439346 17.8190987,3.19838199 L13.4604703,7.52398768 C13.7168602,7.65121138 14.101445,8.03288247 14.357835,8.41455356 L14.357835,8.41455356 Z" id="Shape"></path>
                        <path d="M7.05072252,10.7045801 C7.05072252,10.4501327 7.05072252,10.322909 7.17891748,10.0684616 L1.02555964,10.0684616 C0.640974775,10.0684616 0.384584865,10.322909 0.384584865,10.7045801 C0.384584865,11.0862512 0.640974775,11.3406986 1.02555964,11.3406986 L7.17891748,11.3406986 C7.05072252,11.0862512 7.05072252,10.9590275 7.05072252,10.7045801 L7.05072252,10.7045801 Z" id="Shape"></path>
                        <path d="M11.0247661,6.63342181 C11.281156,6.63342181 11.409351,6.63342181 11.6657409,6.7606455 L11.6657409,0.653908058 C11.6657409,0.272236968 11.409351,0.017789574 11.0247661,0.017789574 C10.6401813,0.017789574 10.3837914,0.272236968 10.3837914,0.653908058 L10.3837914,6.7606455 C10.6401813,6.7606455 10.7683762,6.63342181 11.0247661,6.63342181 L11.0247661,6.63342181 Z" id="Shape"></path>
                        <path d="M21.1521676,10.0684616 L14.9988097,10.0684616 C14.9988097,10.322909 15.1270047,10.4501327 15.1270047,10.7045801 C15.1270047,10.9590275 15.1270047,11.0862512 14.9988097,11.3406986 L21.1521676,11.3406986 C21.5367524,11.3406986 21.7931423,11.0862512 21.7931423,10.7045801 C21.7931423,10.322909 21.5367524,10.0684616 21.1521676,10.0684616 L21.1521676,10.0684616 Z" id="Shape"></path>
                        <path d="M14.357835,12.9946066 C14.101445,13.3762777 13.8450551,13.6307251 13.4604703,13.8851725 L17.8190987,18.2107782 C17.9472937,18.3380019 18.0754886,18.4652256 18.3318786,18.4652256 C18.5882685,18.4652256 18.7164634,18.3380019 18.8446584,18.2107782 C19.1010483,17.9563308 19.1010483,17.5746597 18.8446584,17.3202123 L14.357835,12.9946066 L14.357835,12.9946066 Z" id="Shape"></path>
                        <path d="M7.81989225,12.9946066 L3.46126378,17.3202123 C3.20487387,17.5746597 3.20487387,17.9563308 3.46126378,18.2107782 C3.58945874,18.3380019 3.71765369,18.4652256 3.9740436,18.4652256 C4.10223856,18.4652256 4.35862847,18.3380019 4.48682342,18.2107782 L8.84545189,13.8851725 C8.33267207,13.6307251 8.07628216,13.3762777 7.81989225,12.9946066 L7.81989225,12.9946066 Z" id="Shape"></path>
                        <path d="M11.0247661,14.6485147 C10.7683762,14.6485147 10.6401813,14.6485147 10.3837914,14.521291 L10.3837914,20.6280284 C10.3837914,21.0096995 10.6401813,21.2641469 11.0247661,21.2641469 C11.409351,21.2641469 11.6657409,21.0096995 11.6657409,20.6280284 L11.6657409,14.521291 C11.5375459,14.6485147 11.281156,14.6485147 11.0247661,14.6485147 L11.0247661,14.6485147 Z" id="Shape"></path>
                    </g>
                    <g id="pop" transform="translate(973.000000, 248.000000)" fill="#FFFFFF">
                        <path d="M7.81989225,8.86325087 C8.07628216,8.47789214 8.33267207,8.22098632 8.71725694,7.9640805 L4.35862847,3.59668151 C4.10223856,3.33977569 3.71765369,3.33977569 3.46126378,3.59668151 C3.20487387,3.85358734 3.20487387,4.23894607 3.46126378,4.49585189 L7.81989225,8.86325087 L7.81989225,8.86325087 Z" id="Shape"></path>
                        <path d="M14.357835,8.86325087 L18.7164634,4.49585189 C18.9728533,4.23894607 18.9728533,3.85358734 18.7164634,3.59668151 C18.4600735,3.33977569 18.0754886,3.33977569 17.8190987,3.59668151 L13.4604703,7.9640805 C13.7168602,8.22098632 14.101445,8.60634505 14.357835,8.86325087 L14.357835,8.86325087 Z" id="Shape"></path>
                        <path d="M7.05072252,11.3038562 C7.05072252,11.0469504 7.05072252,10.9184975 7.17891748,10.6615916 L1.02555964,10.6615916 C0.640974775,10.6615916 0.384584865,10.9184975 0.384584865,11.3038562 C0.384584865,11.6892149 0.640974775,11.9461207 1.02555964,11.9461207 L7.17891748,11.9461207 C7.05072252,11.6892149 7.05072252,11.4323091 7.05072252,11.3038562 L7.05072252,11.3038562 Z" id="Shape"></path>
                        <path d="M11.0247661,7.19336303 C11.281156,7.19336303 11.409351,7.19336303 11.6657409,7.32181594 L11.6657409,1.1560762 C11.6657409,0.770717467 11.409351,0.513811645 11.0247661,0.513811645 C10.6401813,0.513811645 10.3837914,0.770717467 10.3837914,1.1560762 L10.3837914,7.32181594 C10.6401813,7.32181594 10.8965712,7.19336303 11.0247661,7.19336303 L11.0247661,7.19336303 Z" id="Shape"></path>
                        <path d="M21.1521676,10.6615916 L14.9988097,10.6615916 C14.9988097,10.9184975 15.1270047,11.0469504 15.1270047,11.3038562 C15.1270047,11.560762 15.1270047,11.6892149 14.9988097,11.9461207 L21.1521676,11.9461207 C21.5367524,11.9461207 21.7931423,11.6892149 21.7931423,11.3038562 C21.9213373,10.9184975 21.5367524,10.6615916 21.1521676,10.6615916 L21.1521676,10.6615916 Z" id="Shape"></path>
                        <path d="M14.357835,13.6160086 C14.101445,14.0013673 13.8450551,14.2582731 13.4604703,14.515179 L17.8190987,18.8825779 C17.9472937,19.0110309 18.0754886,19.1394838 18.3318786,19.1394838 C18.5882685,19.1394838 18.7164634,19.0110309 18.8446584,18.8825779 C19.1010483,18.6256721 19.1010483,18.2403134 18.8446584,17.9834076 L14.357835,13.6160086 L14.357835,13.6160086 Z" id="Shape"></path>
                        <path d="M7.81989225,13.6160086 L3.46126378,17.9834076 C3.20487387,18.2403134 3.20487387,18.6256721 3.46126378,18.8825779 C3.58945874,19.0110309 3.71765369,19.1394838 3.9740436,19.1394838 C4.23043351,19.1394838 4.35862847,19.0110309 4.48682342,18.8825779 L8.84545189,14.515179 C8.33267207,14.2582731 8.07628216,14.0013673 7.81989225,13.6160086 L7.81989225,13.6160086 Z" id="Shape"></path>
                        <path d="M11.0247661,15.2858964 C10.7683762,15.2858964 10.6401813,15.2858964 10.3837914,15.1574435 L10.3837914,21.3231833 C10.3837914,21.708542 10.6401813,21.9654478 11.0247661,21.9654478 C11.409351,21.9654478 11.6657409,21.708542 11.6657409,21.3231833 L11.6657409,15.1574435 C11.5375459,15.2858964 11.281156,15.2858964 11.0247661,15.2858964 L11.0247661,15.2858964 Z" id="Shape"></path>
                    </g>
                </g>
            </g>
        </g>
    </g>
</svg>